# xmcd
#
# Track frame offsets:
#	150
#	18402
#	42002
#	51967
#	69002
#	84902
#	101320
#	119485
#	130740
#	141780
#	157607
#	170747
#	185972
#	205960
#	225045
#	245947
#
# Disc length: 3523 seconds
#
# Revision: 5
# Processed by: cddbd v1.5.2PL0 Copyright (c) Steve Scherf et al.
# Submitted via: audiograbber 1.83.01
#
DISCID=cd0dc110
DTITLE=Various Artist - New Country November 1994
DYEAR=1994
DGENRE=Country
TTITLE0=Lynyrd Skynyrd - Sweet Home Alabama
TTITLE1=Terry McBride and The Ride - Saturday Night Special
TTITLE2=Clay Walker - If I Could Make A Living
TTITLE3=John and Audrey Wiggins - Memory Making Night
TTITLE4=Kenny Baker and Bill Monroe - Jerusalem Ridge
TTITLE5=Cliff Eberhardt - Ever Since I Lost Your Love
TTITLE6=Jim Lauderdale - Run Like You
TTITLE7=Barry and Holly Tashian - Is My Home Still Up There
TTITLE8=Mike Cross - Riding With Me
TTITLE9=Lisa Brokop - Take That
TTITLE10=Bryan White - You Know How I Feel
TTITLE11=Amy Fradon and Leslie Ritter - Lay Your Head (Upon My Shoulders)
TTITLE12=Allman Brothers Band - Soulshine
TTITLE13=Waylon Jennings - Waymore's Blues (Part II)
TTITLE14=David Grisman and Tony Rice - Dawg After Dark
TTITLE15=The Hackberry Ramblers - Old Pipeliner
EXTD=
EXTT0=
EXTT1=
EXTT2=
EXTT3=
EXTT4=
EXTT5=
EXTT6=
EXTT7=
EXTT8=
EXTT9=
EXTT10=
EXTT11=
EXTT12=
EXTT13=
EXTT14=
EXTT15=
PLAYORDER=
